<svg xmlns="http://www.w3.org/2000/svg" viewBox="0 0 100 100">
    <path d="M15.728,69.888c-3.856,0.897-6.518,3.465-8.612,5.86c-1.419,1.622-2.937,3.591-3.438,5.895  c-0.04,0.183-0.074,0.369-0.104,0.554c0,0,0,0,0,0c-0.013,0.085-0.028,0.296,0.123,0.425c0.104,0.088,0.247,0.104,0.424,0.049  c0.097-0.031,0.175-0.072,0.239-0.126c0.112-0.089,0.228-0.178,0.341-0.264c0.623-0.467,1.154-0.802,1.833-1.156  c0.25-0.13,0.835-0.433,1.051-0.297c0.068,0.043,0.198,0.192,0.294,0.702c0.09,0.476,0.093,0.922,0.011,1.493  c-0.167,1.164-0.605,2.336-1.054,3.43c-0.83,2.023-1.653,3.637-2.59,5.079c-0.07,0.108-0.047,0.252,0.054,0.333  c0.046,0.036,0.101,0.054,0.155,0.054c0.066,0,0.132-0.026,0.181-0.078c1.187-1.245,2.567-2.418,4.344-3.692  c0.96-0.689,1.999-1.386,3.093-1.818c0.535-0.211,0.97-0.311,1.456-0.333c0.515-0.022,0.692,0.067,0.75,0.125  c0.183,0.179,0.022,0.818-0.046,1.091c-0.188,0.743-0.391,1.337-0.702,2.05c-0.057,0.13-0.117,0.264-0.176,0.389  c-0.041,0.081-0.063,0.168-0.07,0.268c-0.012,0.186,0.038,0.321,0.147,0.4c0.159,0.117,0.361,0.053,0.441,0.02  c0.173-0.071,0.346-0.146,0.514-0.228c2.127-1.02,3.692-2.951,4.942-4.706c1.846-2.591,3.731-5.773,3.713-9.732  c-0.006-1.369-0.256-3.861-1.86-5.174C19.544,69.245,17.062,69.578,15.728,69.888z"></path>
</svg>
