<svg xmlns="http://www.w3.org/2000/svg" viewBox="0 0 100 100">
    <path d="M15.728,69.888c-3.856,0.897-6.518,3.465-8.612,5.86c-1.419,1.622-2.937,3.591-3.438,5.895  c-0.04,0.183-0.074,0.369-0.104,0.554c0,0,0,0,0,0c-0.013,0.085-0.028,0.296,0.123,0.425c0.104,0.088,0.247,0.104,0.424,0.049  c0.097-0.031,0.175-0.072,0.239-0.126c0.112-0.089,0.228-0.178,0.341-0.264c0.623-0.467,1.154-0.802,1.833-1.156  c0.25-0.13,0.835-0.433,1.051-0.297c0.068,0.043,0.198,0.192,0.294,0.702c0.09,0.476,0.093,0.922,0.011,1.493  c-0.167,1.164-0.605,2.336-1.054,3.43c-0.83,2.023-1.653,3.637-2.59,5.079c-0.07,0.108-0.047,0.252,0.054,0.333  c0.046,0.036,0.101,0.054,0.155,0.054c0.066,0,0.132-0.026,0.181-0.078c1.187-1.245,2.567-2.418,4.344-3.692  c0.96-0.689,1.999-1.386,3.093-1.818c0.535-0.211,0.97-0.311,1.456-0.333c0.515-0.022,0.692,0.067,0.75,0.125  c0.183,0.179,0.022,0.818-0.046,1.091c-0.188,0.743-0.391,1.337-0.702,2.05c-0.057,0.13-0.117,0.264-0.176,0.389  c-0.041,0.081-0.063,0.168-0.07,0.268c-0.012,0.186,0.038,0.321,0.147,0.4c0.159,0.117,0.361,0.053,0.441,0.02  c0.173-0.071,0.346-0.146,0.514-0.228c2.127-1.02,3.692-2.951,4.942-4.706c1.846-2.591,3.731-5.773,3.713-9.732  c-0.006-1.369-0.256-3.861-1.86-5.174C19.544,69.245,17.062,69.578,15.728,69.888z"></path>
    <path d="M70.648,9.476c-0.395-1.085-1.037-1.471-2.153-1.284c-3.186,0.53-5.834,1.584-8.337,3.317  c-2.185,1.514-3.927,2.925-5.327,4.889c-1.959,2.748-4.108,5.418-6.187,8.001c-0.494,0.614-0.988,1.228-1.48,1.844  c-5.701,7.131-11.832,14.681-18.579,21.72c-0.456,0.476-0.916,0.948-1.379,1.415c-0.032,0.032-0.08,0.086-0.14,0.155  c-0.651,0.744-0.858,0.794-0.912,0.775c-1.668-0.873-1.937-0.704-3.281,0.461l-0.674,0.585c-0.08,0.07-0.095,0.073-0.285-0.037  c-0.045-0.026-0.091-0.052-0.138-0.075c-0.529-0.262-1.074-0.351-1.771-0.289c-1.125,0.099-2.254,0.369-3.453,0.826  c-4.436,1.69-8.619,5.801-10.174,9.995c-0.261,0.702-0.358,1.28-0.317,1.874l0.011,0.194c0.027,0.545,0.064,1.292,1.06,1.304  c0.773-0.001,1.875-0.629,3.422-1.95c1.74-1.484,3.522-2.846,6.177-3.191c2.454-0.321,4.55,0.586,5.744,2.486  c0.604,0.962,0.85,1.923,0.823,3.212c-0.012,0.574-0.085,1.151-0.223,1.761c-0.01,0.032-0.036,0.079-0.06,0.126  c-0.089,0.176-0.191,0.376-0.033,0.53c0.056,0.055,0.179,0.13,0.381,0.021c0.133-0.072,0.266-0.14,0.401-0.206  c0.275-0.133,0.553-0.252,0.824-0.353c2.233-0.829,4.295-0.575,5.808,0.716c1.719,1.466,2.448,4.071,1.903,6.798  c-0.237,1.186-0.764,2.273-1.273,3.325c-0.536,1.107-1.09,2.251-1.332,3.539c-0.157,0.835,0.117,1.249,0.375,1.449  c0.221,0.172,0.52,0.257,0.87,0.257c0.42,0,0.915-0.122,1.438-0.365c1.162-0.539,2.015-1.347,2.931-2.271  c3.469-3.5,5.54-8.591,5.274-12.971c-0.035-0.564-0.07-1.148-0.28-1.735c-0.1-0.278-0.242-0.536-0.435-0.786  c-0.07-0.091-0.161-0.153-0.242-0.208c-0.044-0.029-0.117-0.079-0.127-0.094c0,0,0-0.018,0.022-0.061  c0.052-0.1,0.123-0.221,0.201-0.357c0.467-0.807,1.248-2.158,0.615-3.08c-0.1-0.145-0.234-0.258-0.365-0.367  c-0.319-0.266-0.412-0.364-0.235-0.658c0.321-0.534,0.648-1.065,0.98-1.593c0.672-1.069,1.402-2.19,2.231-3.428  c5.501-8.208,11.41-15.901,16.975-22.993c0.771-0.983,1.588-1.956,2.379-2.897c1.5-1.787,3.052-3.634,4.369-5.641  c1.848-2.813,2.962-5.234,3.615-7.848c0.374-1.5,0.552-2.97,0.545-4.495c0-0.172,0.005-0.343,0.01-0.514  C70.859,10.717,70.878,10.107,70.648,9.476z"></path>
</svg>
